# xmcd CD database file generated by freedbAccess_ocx
#
# Track frame offsets:
#       150
#       26662
#       40921
#       54840
#       71241
#       88258
#       102090
#       120087
#       135930
#       150985
#       170112
#       195331
#       211590
#       239832
#       261664
#       281763
#
# Disc length: 4095 seconds
#
# Revision: 0
# Processed by: cddbd v1.5.2PL0 Copyright (c) Steve Scherf et al.
# Submitted via: CDnGo 2.09
#
DISCID=dd0ffd10
DTITLE=Billie Holiday - Stormy Weather (4 Disc Set), Disc 3
DYEAR=2000
DGENRE=Blues
TTITLE0=I Gotta Right To Sing The Blues
TTITLE1=Trav'lin Light
TTITLE2=I Must Have That Man!
TTITLE3=Some Other Spring
TTITLE4=Lady Sings The Blues
TTITLE5=Strange Fruit
TTITLE6=God Bless The Child
TTITLE7=Good Morning Heartache
TTITLE8=No Good Man
TTITLE9=Do Nothin' Till You Hear From Me
TTITLE10=Prelude To A Kiss
TTITLE11=Cheek To Cheek
TTITLE12=Ill Wind
TTITLE13=Sophisticated Lady
TTITLE14=Speak Low
TTITLE15=All Or Nothing At All
EXTD=
EXTT0=
EXTT1=
EXTT2=
EXTT3=
EXTT4=
EXTT5=
EXTT6=
EXTT7=
EXTT8=
EXTT9=
EXTT10=
EXTT11=
EXTT12=
EXTT13=
EXTT14=
EXTT15=
PLAYORDER=
